<?xml version="1.0" encoding="UTF-8"?>
<svg xmlns="http://www.w3.org/2000/svg" width="512" height="512" viewBox="0 0 512 512" fill="white"><g>
<path d="M256,168a40,40,0,1,0-40-40A40.045,40.045,0,0,0,256,168Zm0-64a24,24,0,1,1-24,24A24.028,24.028,0,0,1,256,104Z"/>
<path d="M476,80H337.94l14.23-14.23a8,8,0,0,0,0-11.31L329.54,31.83a8,8,0,0,0-11.31,0L292.99,57.07A78.673,78.673,0,0,0,280,51.69V16a8,8,0,0,0-8-8H240a8,8,0,0,0-8,8V51.69a78.673,78.673,0,0,0-12.99,5.38L193.77,31.83a8,8,0,0,0-11.31,0L159.83,54.46a8,8,0,0,0,0,11.31L174.06,80H36A28.031,28.031,0,0,0,8,108V404a28.031,28.031,0,0,0,28,28H190.56l-5.34,32H152a8,8,0,0,0-8,8v16H112a8,8,0,0,0,0,16H400a8,8,0,0,0,0-16H368V472a8,8,0,0,0-8-8H326.78l-5.34-32H476a28.031,28.031,0,0,0,28-28V108A28.031,28.031,0,0,0,476,80ZM188.12,48.8l23.9,23.91a8.016,8.016,0,0,0,9.93,1.11,63.469,63.469,0,0,1,19.82-8.21,8.01,8.01,0,0,0,6.23-7.8V24h16V57.81a8.01,8.01,0,0,0,6.23,7.8,63.469,63.469,0,0,1,19.82,8.21,8.018,8.018,0,0,0,9.93-1.11l23.9-23.91L335.2,60.12l-23.91,23.9a8.018,8.018,0,0,0-1.11,9.93,63.469,63.469,0,0,1,8.21,19.82,8.01,8.01,0,0,0,7.8,6.23H360v16H326.19a8.01,8.01,0,0,0-7.8,6.23,63.469,63.469,0,0,1-8.21,19.82,8.018,8.018,0,0,0,1.11,9.93l23.91,23.9L323.88,207.2l-23.9-23.91a8,8,0,0,0-9.93-1.11,63.469,63.469,0,0,1-19.82,8.21,8.01,8.01,0,0,0-6.23,7.8V232H248V198.19a8.01,8.01,0,0,0-6.23-7.8,63.469,63.469,0,0,1-19.82-8.21,8,8,0,0,0-9.93,1.11l-23.9,23.91L176.8,195.88l23.91-23.9a8.018,8.018,0,0,0,1.11-9.93,63.469,63.469,0,0,1-8.21-19.82,8.01,8.01,0,0,0-7.8-6.23H152V120h33.81a8.01,8.01,0,0,0,7.8-6.23,63.469,63.469,0,0,1,8.21-19.82,8.018,8.018,0,0,0-1.11-9.93L176.8,60.12ZM352,480v8H160v-8ZM201.44,464l5.34-32h98.44l5.34,32ZM488,404a12.01,12.01,0,0,1-12,12H36a12.01,12.01,0,0,1-12-12V384H488Zm0-36H24V108A12.01,12.01,0,0,1,36,96H182.7a78.577,78.577,0,0,0-3.01,8H144a8,8,0,0,0-8,8v32a8,8,0,0,0,8,8h35.69a78.673,78.673,0,0,0,5.38,12.99l-25.24,25.24a8,8,0,0,0,0,11.31l22.63,22.63a8,8,0,0,0,11.31,0l25.24-25.24A78.673,78.673,0,0,0,232,204.31V240a8,8,0,0,0,8,8h32a8,8,0,0,0,8-8V204.31a78.673,78.673,0,0,0,12.99-5.38l25.24,25.24a8,8,0,0,0,11.31,0l22.63-22.63a8,8,0,0,0,0-11.31l-25.24-25.24A78.673,78.673,0,0,0,332.31,152H368a8,8,0,0,0,8-8V112a8,8,0,0,0-8-8H332.31a78.577,78.577,0,0,0-3.01-8H476a12.01,12.01,0,0,1,12,12Z"/>
<path d="M96,392H48a8,8,0,0,0,0,16H96a8,8,0,0,0,0-16Z"/><path d="M128,392h-8a8,8,0,0,0,0,16h8a8,8,0,0,0,0-16Z"/></g></svg>
