<svg id="Icons" height="512" viewBox="0 0 74 74" width="512" xmlns="http://www.w3.org/2000/svg" fill="white"><path d="m15.192 17.136c-7.367 0-13.137-3.326-13.137-7.571s5.77-7.571 13.137-7.571 13.138 3.326 13.138 7.571-5.77 7.571-13.138 7.571zm0-13.142c-6.037 0-11.137 2.551-11.137 5.571s5.1 5.571 11.137 5.571 11.138-2.552 11.138-5.571-5.101-5.571-11.138-5.571z"/><path d="m15.192 24.414c-7.367 0-13.137-3.326-13.137-7.571v-7.278a1 1 0 1 1 2 0v7.278c0 3.02 5.1 5.571 11.137 5.571s11.138-2.551 11.138-5.571v-7.278a1 1 0 1 1 2 0v7.278c0 4.245-5.77 7.571-13.138 7.571z"/><path d="m15.192 31.709c-7.367 0-13.137-3.325-13.137-7.57v-7.279a1 1 0 0 1 2 0v7.279c0 3.019 5.1 5.57 11.137 5.57s11.138-2.551 11.138-5.57v-7.279a1 1 0 0 1 2 0v7.279c0 4.245-5.77 7.57-13.138 7.57z"/><path d="m15.192 39c-7.367 0-13.137-3.325-13.137-7.57v-7.275a1 1 0 0 1 2 0v7.279c0 3.019 5.1 5.57 11.137 5.57s11.138-2.551 11.138-5.57v-7.279a1 1 0 0 1 2 0v7.279c0 4.245-5.77 7.566-13.138 7.566z"/><path d="m60.44 72.01h-2.97a1 1 0 0 1 0-2h2.97a1 1 0 0 1 0 2z"/><path d="m40.56 72.01h-1.69a6.66 6.66 0 0 1 -.157-13.318 7.539 7.539 0 0 1 1.028-2.077 7.429 7.429 0 0 1 2.423-2.223 7.121 7.121 0 0 1 4.06-.99 10.422 10.422 0 0 1 19.566 5.028c0 .094 0 .187-.005.278a6.663 6.663 0 0 1 2.037 12.806 1 1 0 1 1 -.762-1.848 4.66 4.66 0 0 0 -1.77-8.976h-.59a1 1 0 0 1 -.993-1.118 9.751 9.751 0 0 0 .083-1.142 8.426 8.426 0 0 0 -16.082-3.53 1 1 0 0 1 -1.045.573l-.144-.021a5.3 5.3 0 0 0 -3.358.675 5.63 5.63 0 0 0 -2.689 3.757 1 1 0 0 1 -.982.808h-.62a4.66 4.66 0 1 0 0 9.32h1.69a1 1 0 0 1 0 2z"/><path d="m50.47 72.01h-2.91a1 1 0 0 1 0-2h2.91a1 1 0 0 1 0 2z"/><path d="m57.945 32a1 1 0 0 1 -1-1v-15h-15a1 1 0 1 1 0-2h16a1 1 0 0 1 1 1v16a1 1 0 0 1 -1 1z"/><path d="m45.945 20a1 1 0 0 1 -.707-.293l-4-4a1 1 0 0 1 0-1.414l4-4a1 1 0 0 1 1.414 1.414l-3.293 3.293 3.293 3.3a1 1 0 0 1 -.707 1.7z"/><path d="m22.945 63.994h-16a1 1 0 0 1 -1-1v-16a1 1 0 0 1 2 0v15h15a1 1 0 0 1 0 2z"/><path d="m18.946 67.994a1 1 0 0 1 -.707-1.707l3.292-3.293-3.293-3.294a1 1 0 0 1 1.414-1.414l4 4a1 1 0 0 1 0 1.414l-4 4a1 1 0 0 1 -.706.294z"/></svg>