<?xml version="1.0" encoding="UTF-8"?>
<svg xmlns="http://www.w3.org/2000/svg" width="512" height="512" viewBox="0 0 512 512" fill="white"><g><path d="M476,48H36A28.031,28.031,0,0,0,8,76V372a28.031,28.031,0,0,0,28,28H190.56l-5.34,32H152a8,8,0,0,0-8,8v16H112a8,8,0,0,0,0,16H400a8,8,0,0,0,0-16H368V440a8,8,0,0,0-8-8H326.78l-5.34-32H476a28.031,28.031,0,0,0,28-28V76A28.031,28.031,0,0,0,476,48ZM352,448v8H160v-8ZM201.44,432l5.34-32h98.44l5.34,32ZM488,372a12.01,12.01,0,0,1-12,12H36a12.01,12.01,0,0,1-12-12V352H488ZM219.06,144l12,24H168.94l12-24Zm-30.12-16L200,105.89,211.06,128ZM232,184V336h-8V184Zm-40.07,0H208V336H192V185A8.258,8.258,0,0,0,191.93,184Zm-15.86,0a8.258,8.258,0,0,0-.07,1V336h-8V184ZM312,160h32v16H328a8,8,0,0,0,0,16h16v16H312a8,8,0,0,0,0,16h32v16H328a8,8,0,0,0,0,16h16v16H312a8,8,0,0,0,0,16h32v16H328a8,8,0,0,0,0,16h16v16H280V128h64v16H312a8,8,0,0,0,0,16ZM488,336H360V120a8,8,0,0,0-8-8H272a8,8,0,0,0-8,8V336H248V168a8.081,8.081,0,0,0-.84-3.58l-40-80a8.009,8.009,0,0,0-14.32,0l-40,80A8.081,8.081,0,0,0,152,168V336H24V76A12.01,12.01,0,0,1,36,64H476a12.01,12.01,0,0,1,12,12Z"/><path d="M96,360H48a8,8,0,0,0,0,16H96a8,8,0,0,0,0-16Z"/><path d="M128,360h-8a8,8,0,0,0,0,16h8a8,8,0,0,0,0-16Z"/></g></svg>
