<svg id="Icons" height="512" viewBox="0 0 74 74" width="512" xmlns="http://www.w3.org/2000/svg" fill="white"><path d="m57 32.53a1 1 0 0 1 -1-1v-2.97a1 1 0 0 1 2 0v2.97a1 1 0 0 1 -1 1z"/><path d="m54 72h-34a4 4 0 0 1 -4-4v-62a4 4 0 0 1 4-4h34a4 4 0 0 1 4 4v15.56a1 1 0 1 1 -2 0v-15.56a2 2 0 0 0 -2-2h-34a2 2 0 0 0 -2 2v62a2 2 0 0 0 2 2h34a2 2 0 0 0 2-2v-19.56a1 1 0 0 1 2 0v19.56a4 4 0 0 1 -4 4z"/><path d="m57 42.44a1 1 0 0 1 -1-1v-2.91a1 1 0 0 1 2 0v2.91a1 1 0 0 1 -1 1z"/><path d="m57 14h-40a1 1 0 0 1 0-2h40a1 1 0 0 1 0 2z"/><path d="m57 58.42h-40a1 1 0 0 1 0-2h40a1 1 0 0 1 0 2z"/><path d="m40.719 9h-7.438a1 1 0 0 1 0-2h7.438a1 1 0 0 1 0 2z"/><path d="m39.646 67.4h-5.292a3.188 3.188 0 0 1 0-6.375h5.292a3.188 3.188 0 0 1 0 6.375zm-5.292-4.375a1.188 1.188 0 0 0 0 2.375h5.292a1.188 1.188 0 0 0 0-2.375z"/><path d="m38.632 50.21h-3.264a1.421 1.421 0 0 1 -1.38-1.115l-.294-1.38a12.844 12.844 0 0 1 -3.2-1.325l-1.185.767a1.419 1.419 0 0 1 -1.764-.185l-2.305-2.308a1.417 1.417 0 0 1 -.187-1.765l.767-1.185a12.822 12.822 0 0 1 -1.325-3.2l-1.378-.294a1.419 1.419 0 0 1 -1.117-1.379v-3.262a1.418 1.418 0 0 1 1.118-1.379l1.382-.3a12.822 12.822 0 0 1 1.325-3.2l-.766-1.184a1.417 1.417 0 0 1 .186-1.766l2.306-2.306a1.417 1.417 0 0 1 1.766-.186l1.184.766a12.844 12.844 0 0 1 3.2-1.325l.294-1.378a1.42 1.42 0 0 1 1.38-1.117h3.264a1.421 1.421 0 0 1 1.38 1.115l.294 1.38a12.844 12.844 0 0 1 3.2 1.325l1.185-.767a1.419 1.419 0 0 1 1.764.185l2.307 2.308a1.417 1.417 0 0 1 .187 1.765l-.767 1.185a12.822 12.822 0 0 1 1.325 3.2l1.378.294a1.418 1.418 0 0 1 1.108 1.385v3.262a1.419 1.419 0 0 1 -1.118 1.381l-1.377.294a12.822 12.822 0 0 1 -1.325 3.2l.766 1.184a1.419 1.419 0 0 1 -.187 1.768l-2.3 2.3a1.417 1.417 0 0 1 -1.766.186l-1.193-.764a12.844 12.844 0 0 1 -3.2 1.325l-.294 1.378a1.42 1.42 0 0 1 -1.374 1.117zm-2.787-2h2.31l.327-1.531a1 1 0 0 1 .774-.771 10.871 10.871 0 0 0 3.717-1.539 1 1 0 0 1 1.088 0l1.316.851 1.633-1.633-.852-1.314a1 1 0 0 1 0-1.089 10.872 10.872 0 0 0 1.542-3.718 1 1 0 0 1 .77-.774l1.53-.326v-2.312l-1.531-.326a1 1 0 0 1 -.77-.774 10.872 10.872 0 0 0 -1.541-3.717 1 1 0 0 1 0-1.089l.852-1.315-1.633-1.633-1.316.851a1 1 0 0 1 -1.088 0 10.871 10.871 0 0 0 -3.717-1.539 1 1 0 0 1 -.774-.771l-.327-1.531h-2.31l-.327 1.531a1 1 0 0 1 -.774.771 10.871 10.871 0 0 0 -3.717 1.539 1 1 0 0 1 -1.088 0l-1.316-.851-1.633 1.633.852 1.315a1 1 0 0 1 0 1.089 10.872 10.872 0 0 0 -1.542 3.717 1 1 0 0 1 -.77.774l-1.53.326v2.312l1.531.326a1 1 0 0 1 .77.774 10.872 10.872 0 0 0 1.541 3.717 1 1 0 0 1 0 1.089l-.852 1.314 1.633 1.633 1.316-.851a1 1 0 0 1 1.088 0 10.871 10.871 0 0 0 3.717 1.539 1 1 0 0 1 .774.771z"/><path d="m37 43.429a8.219 8.219 0 1 1 8.219-8.219 8.228 8.228 0 0 1 -8.219 8.219zm0-14.438a6.219 6.219 0 1 0 6.219 6.219 6.226 6.226 0 0 0 -6.219-6.219z"/></svg>