<svg height="512" viewBox="0 0 512 512" width="512" xmlns="http://www.w3.org/2000/svg" fill="white"><g><path d="m476 48h-440a28.031 28.031 0 0 0 -28 28v296a28.031 28.031 0 0 0 28 28h154.56l-5.34 32h-33.22a8 8 0 0 0 -8 8v16h-32a8 8 0 0 0 0 16h288a8 8 0 0 0 0-16h-32v-16a8 8 0 0 0 -8-8h-33.22l-5.34-32h154.56a28.031 28.031 0 0 0 28-28v-296a28.031 28.031 0 0 0 -28-28zm-124 400v8h-192v-8zm-150.56-16 5.34-32h98.44l5.34 32zm286.56-60a12.01 12.01 0 0 1 -12 12h-440a12.01 12.01 0 0 1 -12-12v-20h464zm0-36h-464v-260a12.01 12.01 0 0 1 12-12h440a12.01 12.01 0 0 1 12 12z"/><path d="m96 360h-48a8 8 0 0 0 0 16h48a8 8 0 0 0 0-16z"/><path d="m128 360h-8a8 8 0 0 0 0 16h8a8 8 0 0 0 0-16z"/><path d="m223.317 299.543 29.712 11.885a8 8 0 0 0 5.942 0l29.712-11.885a87.577 87.577 0 0 0 55.317-81.706v-72.837a8 8 0 0 0 -4.949-7.4l-80-33a8 8 0 0 0 -6.1 0l-80 33a8 8 0 0 0 -4.951 7.4v72.837a87.577 87.577 0 0 0 55.317 81.706zm-39.317-149.189 72-29.7 72 29.7v67.483a71.657 71.657 0 0 1 -45.26 66.851l-26.74 10.696-26.74-10.7a71.657 71.657 0 0 1 -45.26-66.847z"/><path d="m234.343 245.657a8 8 0 0 0 5.657 2.343h.266a8 8 0 0 0 5.755-2.727l56-64a8 8 0 1 0 -12.042-10.536l-50.369 57.563-17.953-17.954a8 8 0 0 0 -11.314 11.314z"/></g></svg>